<?xml version="1.0" encoding="UTF-8"?>
<!DOCTYPE svg PUBLIC "-//W3C//DTD SVG 1.1//EN" "http://www.w3.org/Graphics/SVG/1.1/DTD/svg11.dtd">
<!-- Creator: CorelDRAW 2019 (64-Bit) -->
<svg xmlns="http://www.w3.org/2000/svg" xml:space="preserve" width="118.322mm" height="37.6482mm" version="1.1" style="shape-rendering:geometricPrecision; text-rendering:geometricPrecision; image-rendering:optimizeQuality; fill-rule:evenodd; clip-rule:evenodd"
viewBox="0 0 5828 1854.38"
 xmlns:xlink="http://www.w3.org/1999/xlink">
 <defs>
  <style type="text/css">
   <![CDATA[
    .fil0 {fill:white}
   ]]>
  </style>
 </defs>
 <g id="Layer_x0020_1">
  <metadata id="CorelCorpID_0Corel-Layer"/>
  <g id="_1127355106144">
   <polygon class="fil0" points="1854.36,0 -0,0 -0,1854.38 1854.36,1854.38 "/>
   <path class="fil0" d="M2914.01 1854.38c512.05,0 927.16,-415.13 927.16,-927.19 0,-512.08 -415.11,-927.19 -927.16,-927.19 -512.08,0 -927.19,415.11 -927.19,927.19 0,512.05 415.11,927.19 927.19,927.19z"/>
   <path class="fil0" d="M4900.83 1854.38c512.05,0 927.16,-415.13 927.16,-927.19 0,-512.08 -415.11,-927.19 -927.16,-927.19 -512.08,0 -927.19,415.11 -927.19,927.19 0,512.05 415.11,927.19 927.19,927.19z"/>
  </g>
 </g>
</svg>
