<svg width="552" height="687" viewBox="0 0 552 687" fill="none" xmlns="http://www.w3.org/2000/svg">
<path d="M104.949 152.969H48.257C40.9505 152.969 35 147.018 35 139.696V82.9368C35 75.6216 40.9433 69.6641 48.257 69.6641H104.949C112.255 69.6641 118.206 75.6144 118.206 82.9368V139.696C118.206 147.011 112.263 152.969 104.949 152.969ZM48.257 71.1155C41.7439 71.1155 36.4425 76.4232 36.4425 82.944V139.703C36.4425 146.224 41.7439 151.532 48.257 151.532H104.949C111.462 151.532 116.763 146.224 116.763 139.703V82.944C116.763 76.4232 111.462 71.1155 104.949 71.1155H48.257Z" fill="#B2CCCC"/>
<path d="M228.055 152.969H171.363C164.057 152.969 158.106 147.018 158.106 139.696V82.9368C158.106 75.6216 164.05 69.6641 171.363 69.6641H228.055C235.362 69.6641 241.312 75.6144 241.312 82.9368V139.696C241.312 147.011 235.369 152.969 228.055 152.969ZM171.363 71.1083C164.85 71.1083 159.549 76.416 159.549 82.9368V139.696C159.549 146.217 164.85 151.524 171.363 151.524H228.055C234.568 151.524 239.87 146.217 239.87 139.696V82.9368C239.87 76.416 234.568 71.1083 228.055 71.1083H171.363Z" fill="#B2CCCC"/>
<path d="M228.055 307.555H171.363C164.057 307.555 158.106 301.604 158.106 294.282V237.523C158.106 230.208 164.05 224.25 171.363 224.25H228.055C235.362 224.25 241.312 230.2 241.312 237.523V294.282C241.312 301.597 235.369 307.555 228.055 307.555ZM171.363 225.694C164.85 225.694 159.549 231.002 159.549 237.523V294.282C159.549 300.803 164.85 306.11 171.363 306.11H228.055C234.568 306.11 239.87 300.803 239.87 294.282V237.523C239.87 231.002 234.568 225.694 228.055 225.694H171.363Z" fill="#B2CCCC"/>
<path d="M104.949 307.555H48.257C40.9505 307.555 35 301.604 35 294.282V237.523C35 230.208 40.9433 224.25 48.257 224.25H104.949C112.255 224.25 118.206 230.2 118.206 237.523V294.282C118.206 301.597 112.263 307.555 104.949 307.555ZM48.257 225.694C41.7439 225.694 36.4425 231.002 36.4425 237.523V294.282C36.4425 300.803 41.7439 306.11 48.257 306.11H104.949C111.462 306.11 116.763 300.803 116.763 294.282V237.523C116.763 231.002 111.462 225.694 104.949 225.694H48.257Z" fill="#B2CCCC"/>
<path d="M115.082 244.78C124.368 244.78 131.895 237.243 131.895 227.947C131.895 218.65 124.368 211.114 115.082 211.114C105.797 211.114 98.2695 218.65 98.2695 227.947C98.2695 237.243 105.797 244.78 115.082 244.78Z" fill="#005555"/>
<path d="M351.162 152.969H294.47C287.163 152.969 281.213 147.018 281.213 139.696V82.9368C281.213 75.6216 287.156 69.6641 294.47 69.6641H351.162C358.468 69.6641 364.419 75.6144 364.419 82.9368V139.696C364.419 147.011 358.475 152.969 351.162 152.969ZM294.47 71.1083C287.957 71.1083 282.655 76.416 282.655 82.9368V139.696C282.655 146.217 287.957 151.524 294.47 151.524H351.162C357.675 151.524 362.976 146.217 362.976 139.696V82.9368C362.976 76.416 357.675 71.1083 351.162 71.1083H294.47Z" fill="#B2CCCC"/>
<path d="M363.698 90.2008C372.983 90.2008 380.51 82.6645 380.51 73.368C380.51 64.0715 372.983 56.5352 363.698 56.5352C354.412 56.5352 346.885 64.0715 346.885 73.368C346.885 82.6645 354.412 90.2008 363.698 90.2008Z" fill="#005555"/>
<path d="M91.4108 170.299H57.5904C54.9433 170.299 52.7939 168.147 52.7939 165.497C52.7939 162.847 54.9433 160.695 57.5904 160.695H91.4108C94.0579 160.695 96.2073 162.847 96.2073 165.497C96.2073 168.147 94.0579 170.299 91.4108 170.299Z" fill="#FAD266"/>
<path d="M216.616 170.299H182.795C180.148 170.299 177.999 168.147 177.999 165.497C177.999 162.847 180.148 160.695 182.795 160.695H216.616C219.263 160.695 221.412 162.847 221.412 165.497C221.412 168.147 219.263 170.299 216.616 170.299Z" fill="#FAD266"/>
<path d="M341.829 170.299H308.008C305.361 170.299 303.212 168.147 303.212 165.497C303.212 162.847 305.361 160.695 308.008 160.695H341.829C344.476 160.695 346.625 162.847 346.625 165.497C346.625 168.147 344.476 170.299 341.829 170.299Z" fill="#FAD266"/>
<path d="M351.162 308.998H294.47C287.163 308.998 281.213 303.048 281.213 295.725V238.966C281.213 231.651 287.156 225.693 294.47 225.693H351.162C358.468 225.693 364.419 231.644 364.419 238.966V295.725C364.419 303.04 358.475 308.998 351.162 308.998ZM294.47 227.138C287.957 227.138 282.655 232.445 282.655 238.966V295.725C282.655 302.246 287.957 307.554 294.47 307.554H351.162C357.675 307.554 362.976 302.246 362.976 295.725V238.966C362.976 232.445 357.675 227.138 351.162 227.138H294.47Z" fill="#B2CCCC"/>
<path d="M341.829 326.322H308.008C305.361 326.322 303.212 324.17 303.212 321.52C303.212 318.87 305.361 316.718 308.008 316.718H341.829C344.476 316.718 346.625 318.87 346.625 321.52C346.625 324.17 344.476 326.322 341.829 326.322Z" fill="#FAD266"/>
<path d="M474.276 152.969H417.584C410.278 152.969 404.327 147.018 404.327 139.696V82.9368C404.327 75.6216 410.27 69.6641 417.584 69.6641H474.276C481.583 69.6641 487.533 75.6144 487.533 82.9368V139.696C487.533 147.011 481.59 152.969 474.276 152.969ZM417.584 71.1083C411.071 71.1083 405.77 76.416 405.77 82.9368V139.696C405.77 146.217 411.071 151.524 417.584 151.524H474.276C480.789 151.524 486.09 146.217 486.09 139.696V82.9368C486.09 76.416 480.789 71.1083 474.276 71.1083H417.584Z" fill="#B2CCCC"/>
<path d="M464.935 170.299H431.115C428.468 170.299 426.318 168.147 426.318 165.497C426.318 162.847 428.468 160.695 431.115 160.695H464.935C467.582 160.695 469.732 162.847 469.732 165.497C469.732 168.147 467.582 170.299 464.935 170.299Z" fill="#FAD266"/>
<path d="M91.4108 324.878H57.5904C54.9433 324.878 52.7939 322.726 52.7939 320.076C52.7939 317.425 54.9433 315.273 57.5904 315.273H91.4108C94.0579 315.273 96.2073 317.425 96.2073 320.076C96.2073 322.726 94.0579 324.878 91.4108 324.878Z" fill="#FAD266"/>
<path d="M216.616 324.878H182.795C180.148 324.878 177.999 322.726 177.999 320.076C177.999 317.425 180.148 315.273 182.795 315.273H216.616C219.263 315.273 221.412 317.425 221.412 320.076C221.412 322.726 219.263 324.878 216.616 324.878Z" fill="#FAD266"/>
<path d="M249.752 375.246C252.03 375.246 253.877 373.397 253.877 371.116C253.877 368.835 252.03 366.985 249.752 366.985C247.473 366.985 245.626 368.835 245.626 371.116C245.626 373.397 247.473 375.246 249.752 375.246Z" fill="#005555"/>
<path d="M261.984 375.246C264.263 375.246 266.11 373.397 266.11 371.116C266.11 368.835 264.263 366.985 261.984 366.985C259.706 366.985 257.858 368.835 257.858 371.116C257.858 373.397 259.706 375.246 261.984 375.246Z" fill="#FAD266"/>
<path d="M274.217 375.246C276.496 375.246 278.343 373.397 278.343 371.116C278.343 368.835 276.496 366.985 274.217 366.985C271.939 366.985 270.092 368.835 270.092 371.116C270.092 373.397 271.939 375.246 274.217 375.246Z" fill="#FAD266"/>
<path d="M318.647 20.3564H205.306C199.702 20.3564 195.144 15.7926 195.144 10.1816C195.144 4.57068 199.702 0.00683594 205.306 0.00683594H318.647C324.251 0.00683594 328.81 4.57068 328.81 10.1816C328.81 15.7926 324.251 20.3564 318.647 20.3564ZM205.313 1.44387C200.503 1.44387 196.593 5.36502 196.593 10.1744C196.593 14.9838 200.51 18.9049 205.313 18.9049H318.654C323.465 18.9049 327.374 14.9838 327.374 10.1744C327.374 5.36502 323.458 1.44387 318.654 1.44387H205.313Z" fill="#B2CCCC"/>
<path d="M237.756 12.8391C235.477 12.8391 233.623 10.9832 233.623 8.70127C233.623 6.41935 235.477 4.56348 237.756 4.56348C240.035 4.56348 241.889 6.41935 241.889 8.70127C241.889 10.9832 240.035 12.8391 237.756 12.8391ZM237.756 5.69C236.097 5.69 234.748 7.04038 234.748 8.70127C234.748 10.3622 236.097 11.7125 237.756 11.7125C239.415 11.7125 240.764 10.3622 240.764 8.70127C240.764 7.04038 239.415 5.69 237.756 5.69Z" fill="#005555"/>
<path d="M245.546 16.2259C245.416 16.2259 245.286 16.1825 245.178 16.0887L239.956 11.6043C239.718 11.4021 239.696 11.0482 239.898 10.8099C240.1 10.5716 240.454 10.55 240.692 10.7521L245.914 15.2366C246.152 15.4388 246.173 15.7926 245.971 16.0309C245.863 16.1609 245.704 16.2259 245.546 16.2259Z" fill="#005555"/>
<g clip-path="url(#clip0_1_37226)">
<path d="M60.1018 687L59.6458 686.831C44.1984 681.001 32.0959 668.667 26.5536 653.106C25.0519 648.782 24.1004 644.285 23.7216 639.723L23.6844 639.287L24.1141 639.364C29.2442 640.286 34.6296 640.795 37.0291 640.994L23.5674 632.081L23.5917 631.618C23.8013 627.267 26.6357 623.481 30.7502 622.057C34.9038 620.522 39.5729 621.67 42.5426 624.956C43.8809 626.409 45.2958 627.872 46.6639 629.288C51.3657 634.15 56.2275 639.177 59.3018 645.112C63.9253 654.257 64.1762 665.002 59.9848 674.353L60.1018 687Z" fill="#F2F2F2"/>
<path d="M332.481 678.363L332.476 678.315C331.88 665.096 329.456 652.022 325.272 639.469L325.268 639.448C325.024 638.159 325.095 636.83 325.475 635.574C326.643 631.974 330.267 629.77 333.999 630.39C337.853 631.115 341.84 630.434 345.236 628.471C347.393 627.219 350.01 627.045 352.313 628.002C354.484 628.888 356.109 630.749 356.692 633.022C356.738 633.2 356.778 633.381 356.812 633.564C356.935 646.846 359.373 660.005 364.017 672.448L364.02 672.464C364.506 675.033 363.731 677.68 361.936 679.581C360.349 681.192 358.126 682.009 355.874 681.809C351.832 681.533 347.675 682.354 343.165 684.318C341.589 685.02 339.818 685.144 338.16 684.67C335.228 683.81 333.031 681.37 332.481 678.363Z" fill="#005555"/>
<path d="M203.265 496.767V670.366H324.813V496.767C324.817 494.204 323.149 491.938 320.702 491.181C320.14 490.995 319.551 490.904 318.959 490.91H209.135C205.899 490.904 203.271 493.523 203.265 496.761V496.767ZM250.7 556.416C250.766 549.246 256.628 543.487 263.794 543.553C270.867 543.618 276.585 549.339 276.65 556.416V576.559C276.616 583.729 270.78 589.514 263.614 589.48C256.495 589.446 250.733 583.681 250.7 576.559V556.416Z" fill="#F2F2F2"/>
<path d="M202.893 664.814V681.555C202.898 683.359 204.354 684.823 206.158 684.838H321.92C323.726 684.829 325.185 683.362 325.185 681.555V664.814H202.893Z" fill="#E6E6E6"/>
<path d="M12.0527 235.217V552.184C12.0594 560.595 18.8721 567.412 27.278 567.418H496.722C505.128 567.412 511.941 560.595 511.947 552.184V235.217C511.927 226.815 505.12 220.011 496.722 220H27.278C18.8803 220.011 12.0727 226.815 12.0527 235.217Z" fill="#E6E6E6"/>
<path d="M492.805 231.002H31.1936C26.6971 231.012 23.057 234.662 23.0566 239.161V548.274C23.0644 552.767 26.7029 556.408 31.1936 556.416H492.805C497.296 556.408 500.935 552.767 500.942 548.274V239.161C500.942 234.661 497.302 231.012 492.805 231.002ZM376.362 450.613C374.982 453.341 372.184 455.057 369.129 455.05L369.081 455.047C364.655 454.43 360.214 454.023 355.756 453.826C356.448 454.322 357.057 454.925 357.56 455.612C358.854 457.467 359.252 459.803 358.644 461.982C357.636 465.908 357.684 470.148 358.791 474.943C359.193 476.621 358.992 478.386 358.224 479.93C356.844 482.658 354.046 484.374 350.991 484.367L350.942 484.364C340.374 482.891 329.675 482.606 319.043 483.513C319.001 483.782 318.948 484.05 318.879 484.319C317.871 488.245 317.919 492.485 319.027 497.28C319.428 498.957 319.228 500.723 318.459 502.267C317.079 504.995 314.281 506.711 311.226 506.704L311.178 506.701C300.324 505.189 289.333 504.93 278.42 505.929C278.338 508.655 278.621 511.381 279.262 514.033C279.664 515.71 279.463 517.476 278.694 519.02C277.315 521.747 274.516 523.464 271.461 523.457L271.413 523.453C258.314 521.627 245.025 521.627 231.926 523.453H231.905C230.594 523.458 229.301 523.146 228.136 522.543C224.812 520.737 223.307 516.77 224.597 513.212C224.993 512.092 225.287 510.938 225.476 509.765C213.471 508.381 201.34 508.524 189.371 510.191H189.35C188.039 510.196 186.745 509.883 185.58 509.281C182.256 507.474 180.752 503.507 182.042 499.949C183.457 496.289 183.515 492.243 182.205 488.544C181.588 486.81 181.588 484.915 182.205 483.18C173.182 482.72 164.136 483.117 155.187 484.364H155.166C153.855 484.369 152.562 484.057 151.397 483.454C148.073 481.647 146.568 477.68 147.858 474.122C149.274 470.462 149.332 466.416 148.022 462.717C147.185 460.367 147.492 457.761 148.852 455.67C150.119 453.695 152.244 452.437 154.584 452.277C154.768 452.264 154.952 452.258 155.139 452.258C159.724 453.06 164.353 453.583 169 453.825C166.035 451.875 164.793 448.145 165.997 444.805C167.412 441.145 167.47 437.099 166.16 433.4C165.323 431.05 165.63 428.444 166.991 426.353C167.049 426.263 167.118 426.183 167.18 426.096C163.872 426.324 160.572 426.667 157.28 427.126H157.259C155.948 427.131 154.655 426.818 153.49 426.216C150.166 424.409 148.661 420.442 149.951 416.884C151.367 413.224 151.424 409.178 150.115 405.479C149.278 403.129 149.585 400.523 150.945 398.432C152.212 396.457 154.337 395.199 156.677 395.039C156.861 395.026 157.045 395.02 157.232 395.02C162.745 395.986 168.32 396.547 173.915 396.7C172.488 394.642 172.137 392.023 172.973 389.661C174.388 386.001 174.446 381.955 173.136 378.256C172.3 375.906 172.607 373.3 173.967 371.209C175.233 369.234 177.359 367.976 179.698 367.816C179.882 367.803 180.067 367.797 180.254 367.797C184.919 368.613 189.63 369.141 194.36 369.377C193.343 367.452 193.177 365.189 193.902 363.136C195.317 359.476 195.375 355.43 194.065 351.731C193.228 349.381 193.536 346.775 194.896 344.684C196.162 342.709 198.288 341.451 200.627 341.291C200.811 341.278 200.996 341.272 201.182 341.272C206.672 342.233 212.224 342.794 217.794 342.95C217.036 341.157 216.974 339.145 217.621 337.309C219.036 333.649 219.094 329.603 217.784 325.904C216.948 323.554 217.255 320.948 218.615 318.857C219.881 316.882 222.007 315.624 224.346 315.464C224.53 315.451 224.715 315.445 224.902 315.445C237.976 317.747 251.351 317.749 264.425 315.45H264.442C265.451 315.658 266.491 315.658 267.5 315.45H267.517C280.591 317.749 293.966 317.747 307.04 315.445C307.227 315.445 307.412 315.451 307.596 315.464C309.935 315.624 312.061 316.882 313.327 318.857C314.687 320.948 314.994 323.554 314.158 325.904C312.848 329.603 312.906 333.649 314.321 337.309C314.968 339.145 314.906 341.157 314.148 342.95C319.718 342.794 325.27 342.233 330.76 341.272C330.946 341.272 331.131 341.278 331.315 341.291C333.654 341.451 335.78 342.709 337.046 344.684C338.406 346.775 338.714 349.381 337.877 351.731C336.567 355.43 336.625 359.476 338.04 363.136C338.765 365.189 338.599 367.452 337.582 369.377C342.312 369.141 347.023 368.613 351.688 367.797C351.875 367.797 352.06 367.803 352.244 367.816C354.583 367.976 356.709 369.234 357.975 371.209C359.335 373.3 359.642 375.906 358.806 378.256C357.496 381.955 357.554 386.001 358.969 389.661C359.807 392.029 359.453 394.655 358.017 396.715C358.64 397.186 359.191 397.745 359.653 398.374C360.947 400.229 361.345 402.565 360.737 404.744C359.729 408.67 359.776 412.91 360.884 417.705C361.286 419.383 361.085 421.148 360.317 422.692C360.036 423.242 359.693 423.758 359.296 424.231C362.562 423.944 365.82 423.516 369.069 422.946H369.085C371.699 422.937 374.158 424.182 375.699 426.295C376.992 428.15 377.39 430.486 376.783 432.665C375.774 436.591 375.822 440.831 376.93 445.626C377.332 447.304 377.131 449.069 376.362 450.613Z" fill="white"/>
<path d="M477.833 273.584H45.9049C44.9562 273.563 44.2041 272.776 44.225 271.827C44.2453 270.908 44.9856 270.167 45.9049 270.146H477.833C478.782 270.167 479.534 270.954 479.513 271.903C479.493 272.823 478.752 273.564 477.833 273.584Z" fill="#E6E6E6"/>
<path d="M267.087 515.223L267.039 515.219C253.94 513.393 240.651 513.393 227.552 515.219H227.531C226.22 515.224 224.926 514.912 223.762 514.309C220.437 512.503 218.933 508.536 220.223 504.978C221.638 501.318 221.696 497.272 220.387 493.573C219.55 491.223 219.857 488.616 221.217 486.525C222.483 484.551 224.609 483.292 226.949 483.132C227.133 483.12 227.317 483.114 227.504 483.114C240.578 485.416 253.953 485.418 267.027 483.119H267.044C269.657 483.11 272.117 484.355 273.657 486.468C274.951 488.323 275.348 490.659 274.741 492.838C273.732 496.764 273.78 501.004 274.888 505.799C275.29 507.476 275.089 509.242 274.32 510.786C272.941 513.514 270.142 515.23 267.087 515.223Z" fill="#005555"/>
<path d="M307.37 446.784L296.832 438.058C288.93 442.203 276.905 458.749 276.905 458.749L249.165 478.711C245.833 478.87 243.261 481.701 243.42 485.034C243.579 488.368 246.408 490.941 249.739 490.782C251.901 490.679 253.843 489.427 254.829 487.499L292.52 467.57L307.37 446.784Z" fill="#FFB8B8"/>
<path d="M325.15 413.574C331.232 418.728 331.987 427.84 326.836 433.925C326.259 434.607 325.62 435.234 324.927 435.798L318.225 441.249C318.225 441.249 301.51 465.326 292.809 468.119L270.471 479.796L260.399 469.691L280.644 453.184C280.644 453.184 289.955 444.372 290.887 437.921C291.458 433.97 298.14 423.209 304.838 415.227C309.979 409.16 319.062 408.411 325.127 413.554L325.15 413.574Z" fill="#3F3D56"/>
<path d="M303.493 674.884L293.972 674.883L289.443 638.139L303.495 638.14L303.493 674.884Z" fill="#FFB6B6"/>
<path d="M303.828 684.821L274.551 684.82V684.45C274.551 678.153 279.653 673.048 285.946 673.048L291.295 668.988L301.273 673.048L303.828 673.048L303.828 684.821Z" fill="#2F2E41"/>
<path d="M376.035 624.744L371.526 633.134L337.037 619.726L343.692 607.343L376.035 624.744Z" fill="#FFB6B6"/>
<path d="M384.941 629.154L371.076 654.955L370.75 654.78C365.207 651.798 363.13 644.884 366.11 639.338L366.11 639.337L365.069 632.702L373.368 625.831L374.578 623.579L384.941 629.154Z" fill="#2F2E41"/>
<path d="M285.493 506.616L277.09 573.878L281.291 596.428L356.917 629.579L361.119 615.916C341.788 604.081 321.123 586.169 308.102 584.852C308.102 584.852 307.022 572.915 316.35 565.549C318.232 564.063 317.821 562.052 318.582 560.229C319.105 558.976 321.187 557.671 321.72 556.384C322.412 554.718 321.556 553.062 322.251 551.369C322.642 550.417 324.123 550.357 324.511 549.404C325.173 547.779 324.74 545.262 325.385 543.656C326.764 540.225 328.09 536.869 329.3 533.723C333.068 523.932 335.72 516.174 335.385 514.499C334.334 509.244 285.493 506.616 285.493 506.616Z" fill="#2F2E41"/>
<path d="M284.045 573.683L279.649 602.088L290.745 660.057H305.45C310.733 640.579 311.005 614.979 305.975 593.321L284.045 573.683Z" fill="#2F2E41"/>
<path d="M293.493 424.437L300.272 412.617L307.55 406.775L321.205 404.673L324.998 407.592C338.651 428.47 343.742 453.807 339.215 478.343L338.149 484.118L337.473 487.784L337.766 492.166L335.487 498.545L335.8 503.217L335.968 505.712L336.136 508.216L336.37 511.711C336.79 513.705 334.676 513.442 334.975 515.201C335.5 518.289 337.855 522.864 334.277 522.879L297.303 515.201C287.91 515.24 279.165 504.032 288.234 494.958L293.493 424.437Z" fill="#3F3D56"/>
<path d="M310.8 401.381C320.716 401.381 328.755 393.338 328.755 383.416C328.755 373.494 320.716 365.451 310.8 365.451C300.884 365.451 292.846 373.494 292.846 383.416C292.846 393.338 300.884 401.381 310.8 401.381Z" fill="#FFB8B8"/>
<path d="M311.104 400.871C313.731 400.912 316.357 400.728 318.953 400.322C321.526 399.798 327.282 395.578 328.887 393.038C330.079 391.151 330.841 388.204 331.271 386.065C332.441 380.339 331.13 374.385 327.664 369.682C327.005 368.709 326.096 367.933 325.032 367.434C324.938 367.397 324.84 367.365 324.742 367.337C323.192 366.929 321.8 366.066 320.743 364.861C320.538 364.617 320.316 364.388 320.078 364.176C318.884 363.168 317.468 362.456 315.947 362.1C313.49 361.443 309.936 362.095 305.382 364.043C303.094 365.021 300.592 364.667 298.667 364.249C298.447 364.207 298.222 364.284 298.074 364.452C297.255 365.222 296.175 365.652 295.052 365.658C294.364 365.688 293.642 366.641 292.77 367.884C292.572 368.166 292.341 368.495 292.174 368.696L292.152 368.311L291.763 368.74C289.761 370.948 289.927 374.362 292.133 376.366C292.727 376.904 293.432 377.304 294.199 377.535C294.891 377.72 295.6 377.833 296.315 377.873C296.748 377.912 297.196 377.952 297.625 378.027C300.428 378.601 302.724 380.607 303.67 383.308C304.067 384.415 305.284 384.99 306.39 384.594C306.564 384.531 306.729 384.447 306.881 384.342C307.789 383.634 308.985 383.416 310.084 383.758C310.551 384.018 310.915 384.432 311.115 384.929C311.357 385.482 311.759 385.951 312.269 386.276C314.012 387.175 314.132 391.16 313.506 394.482C312.903 397.684 311.709 400 310.605 400.114C309.754 400.202 309.657 400.263 309.595 400.413L309.54 400.548L309.636 400.674C310.105 400.844 310.606 400.911 311.104 400.871Z" fill="#2F2E41"/>
<path d="M274.762 390.276L274.714 390.273C261.615 388.447 248.326 388.447 235.227 390.273H235.206C233.894 390.278 232.601 389.966 231.436 389.363C228.112 387.557 226.608 383.59 227.898 380.032C229.313 376.372 229.371 372.325 228.061 368.626C227.225 366.276 227.532 363.67 228.892 361.579C230.158 359.604 232.284 358.346 234.623 358.186C234.807 358.174 234.992 358.167 235.179 358.167C248.252 360.47 261.628 360.471 274.702 358.172H274.718C277.332 358.163 279.791 359.409 281.332 361.521C282.625 363.376 283.023 365.712 282.416 367.891C281.407 371.817 281.455 376.057 282.563 380.852C282.965 382.53 282.764 384.295 281.995 385.84C280.616 388.567 277.817 390.284 274.762 390.276Z" fill="#005555"/>
<path d="M291.551 432.588L298.981 421.096C293.943 413.728 276.115 403.712 276.115 403.712L253.059 378.479C252.512 375.187 249.401 372.962 246.111 373.509C242.821 374.056 240.597 377.169 241.144 380.461C241.499 382.597 242.97 384.38 244.998 385.134L269.184 420.259L291.551 432.588Z" fill="#FFB8B8"/>
<path d="M326.592 446.374C322.187 453.021 313.231 454.835 306.589 450.428C305.844 449.934 305.147 449.372 304.507 448.749L298.313 442.727C298.313 442.727 272.351 429.163 268.562 420.843L251.551 396.701L262.957 386.405L282.782 404.438C282.782 404.438 291.91 414.999 298.422 415.172C302.41 415.278 313.872 420.66 322.577 426.383C329.201 430.783 331.006 439.722 326.609 446.349L326.592 446.374Z" fill="#3F3D56"/>
<path d="M153.644 684.717L153.596 684.713C140.497 682.887 127.208 682.887 114.109 684.713H114.088C112.776 684.718 111.483 684.406 110.318 683.803C106.994 681.997 105.49 678.03 106.78 674.472C108.195 670.812 108.253 666.766 106.943 663.067C106.106 660.716 106.414 658.11 107.774 656.019C109.04 654.044 111.166 652.786 113.505 652.626C113.689 652.614 113.874 652.607 114.06 652.607C127.134 654.91 140.509 654.912 153.584 652.613H153.6C156.214 652.603 158.673 653.849 160.213 655.962C161.507 657.816 161.905 660.153 161.297 662.331C160.289 666.258 160.337 670.497 161.445 675.293C161.846 676.97 161.645 678.736 160.877 680.28C159.497 683.007 156.699 684.724 153.644 684.717Z" fill="#005555"/>
<path d="M164.806 655.4L164.758 655.396C151.659 653.57 138.37 653.57 125.271 655.396H125.25C123.938 655.401 122.645 655.089 121.48 654.486C118.156 652.68 116.652 648.713 117.942 645.155C119.357 641.495 119.415 637.449 118.105 633.75C117.269 631.399 117.576 628.793 118.936 626.702C120.202 624.727 122.328 623.469 124.667 623.309C124.851 623.297 125.036 623.29 125.223 623.29C138.296 625.593 151.672 625.595 164.746 623.296H164.762C167.376 623.286 169.835 624.532 171.376 626.645C172.669 628.499 173.067 630.836 172.459 633.014C171.451 636.941 171.499 641.18 172.607 645.976C173.008 647.653 172.808 649.419 172.039 650.963C170.659 653.69 167.861 655.407 164.806 655.4Z" fill="#005555"/>
<path d="M67.1297 663.392L67.1596 663.353C76.0109 653.521 83.4569 642.508 89.2848 630.629L89.2967 630.611C90.0274 629.522 91.0105 628.625 92.1621 627.997C95.52 626.255 99.6467 627.231 101.869 630.293C104.106 633.517 107.423 635.832 111.219 636.819C113.633 637.443 115.619 639.158 116.588 641.456C117.513 643.612 117.363 646.079 116.185 648.108C116.092 648.267 115.994 648.424 115.889 648.578C106.658 658.123 99.1617 669.207 93.739 681.331L93.7299 681.344C92.2731 683.515 89.864 684.856 87.2521 684.948C84.9917 684.981 82.8349 684.002 81.3718 682.277C78.6865 679.242 75.1502 676.906 70.5601 675.137C68.9462 674.53 67.5972 673.374 66.7495 671.872C65.2647 669.2 65.4118 665.92 67.1297 663.392Z" fill="#005555"/>
<path d="M523.174 685.781L0.826322 685.996C0.36757 685.993 -0.00238822 685.619 1.16096e-05 685.16C0.00238354 684.705 0.370953 684.336 0.826322 684.334L523.174 684.119C523.632 684.121 524.002 684.495 524 684.954C523.998 685.41 523.629 685.779 523.174 685.781Z" fill="#CACACA"/>
<path d="M111.796 257.63C115.054 257.63 117.696 254.928 117.696 251.595C117.696 248.262 115.054 245.561 111.796 245.561C108.538 245.561 105.896 248.262 105.896 251.595C105.896 254.928 108.538 257.63 111.796 257.63Z" fill="#3F3D56"/>
<path d="M132.176 257.63C135.434 257.63 138.075 254.928 138.075 251.595C138.075 248.262 135.434 245.561 132.176 245.561C128.918 245.561 126.276 248.262 126.276 251.595C126.276 254.928 128.918 257.63 132.176 257.63Z" fill="#F9C332"/>
<path d="M152.557 257.63C155.815 257.63 158.456 254.928 158.456 251.595C158.456 248.262 155.815 245.561 152.557 245.561C149.299 245.561 146.657 248.262 146.657 251.595C146.657 254.928 149.299 257.63 152.557 257.63Z" fill="#3F3D56"/>
<path d="M175.796 256.364C175.614 256.364 175.433 256.294 175.297 256.155L171.316 252.083C171.051 251.812 171.051 251.378 171.316 251.107L175.297 247.036C175.567 246.76 176.009 246.756 176.283 247.025C176.559 247.294 176.564 247.736 176.294 248.012L172.791 251.595L176.294 255.178C176.564 255.454 176.559 255.896 176.283 256.165C176.148 256.298 175.972 256.364 175.796 256.364Z" fill="#3F3D56"/>
<path d="M182.485 256.364C182.309 256.364 182.133 256.298 181.997 256.165C181.721 255.896 181.717 255.454 181.986 255.178L185.489 251.595L181.986 248.012C181.717 247.736 181.721 247.294 181.997 247.025C182.272 246.755 182.714 246.76 182.983 247.036L186.964 251.107C187.229 251.378 187.229 251.812 186.964 252.083L182.983 256.155C182.847 256.294 182.666 256.364 182.485 256.364Z" fill="#3F3D56"/>
<path d="M390.732 246.259H383.331C382.486 246.259 381.803 246.943 381.803 247.787V255.2C381.803 256.045 382.486 256.729 383.331 256.729H390.732C391.576 256.729 392.267 256.045 392.267 255.2V247.787C392.267 246.943 391.576 246.259 390.732 246.259Z" fill="#F9C332"/>
<path d="M372.595 246.259H365.193C364.349 246.259 363.665 246.943 363.665 247.787V255.2C363.665 256.045 364.349 256.729 365.193 256.729H372.595C373.439 256.729 374.129 256.045 374.129 255.2V247.787C374.129 246.943 373.439 246.259 372.595 246.259Z" fill="#3F3D56"/>
<path d="M407.824 246.608H400.422C399.578 246.608 398.895 247.292 398.895 248.137V255.55C398.895 256.394 399.578 257.079 400.422 257.079H407.824C408.668 257.079 409.359 256.394 409.359 255.55V248.137C409.359 247.292 408.668 246.608 407.824 246.608Z" fill="#3F3D56"/>
<path d="M296.259 249.428H237.093C236.061 249.428 235.23 250.265 235.23 251.291C235.23 252.318 236.061 253.155 237.093 253.155H296.259C297.284 253.155 298.121 252.318 298.121 251.291C298.121 250.265 297.284 249.428 296.259 249.428Z" fill="#3F3D56"/>
</g>
<defs>
<clipPath id="clip0_1_37226">
<rect width="524" height="467" fill="white" transform="translate(0 220)"/>
</clipPath>
</defs>
</svg>
