<svg width="178" height="40" viewBox="0 0 178 40" fill="none" xmlns="http://www.w3.org/2000/svg">
<path d="M28 6H0V34H28V6Z" fill="white"/>
<path d="M44.0001 34C51.7321 34 58 27.7319 58 19.9999C58 12.268 51.7321 6 44.0001 6C36.2681 6 30 12.268 30 19.9999C30 27.7319 36.2681 34 44.0001 34Z" fill="white"/>
<path d="M74.0001 34C81.7321 34 88 27.7319 88 19.9999C88 12.268 81.7321 6 74.0001 6C66.2681 6 60 12.268 60 19.9999C60 27.7319 66.2681 34 74.0001 34Z" fill="white"/>
<path d="M92.517 11.0455H97.0682L101.875 22.7727H102.08L106.886 11.0455H111.438V28.5H107.858V17.1392H107.713L103.196 28.4148H100.759L96.2415 17.0966H96.0966V28.5H92.517V11.0455ZM120.376 28.7557C119.029 28.7557 117.87 28.483 116.898 27.9375C115.933 27.3864 115.188 26.608 114.665 25.6023C114.143 24.5909 113.881 23.3949 113.881 22.0142C113.881 20.6676 114.143 19.4858 114.665 18.4688C115.188 17.4517 115.924 16.6591 116.873 16.0909C117.827 15.5227 118.947 15.2386 120.231 15.2386C121.094 15.2386 121.898 15.3778 122.643 15.6562C123.393 15.929 124.046 16.3409 124.603 16.892C125.165 17.4432 125.603 18.1364 125.915 18.9716C126.228 19.8011 126.384 20.7727 126.384 21.8864V22.8835H115.33V20.6335H122.967C122.967 20.1108 122.853 19.6477 122.626 19.2443C122.398 18.8409 122.083 18.5256 121.68 18.2983C121.282 18.0653 120.819 17.9489 120.29 17.9489C119.739 17.9489 119.251 18.0767 118.825 18.3324C118.404 18.5824 118.075 18.9205 117.836 19.3466C117.597 19.767 117.475 20.2358 117.469 20.7528V22.892C117.469 23.5398 117.589 24.0994 117.827 24.571C118.072 25.0426 118.415 25.4062 118.859 25.6619C119.302 25.9176 119.827 26.0455 120.435 26.0455C120.839 26.0455 121.208 25.9886 121.543 25.875C121.879 25.7614 122.165 25.5909 122.404 25.3636C122.643 25.1364 122.825 24.858 122.95 24.5284L126.308 24.75C126.137 25.5568 125.788 26.2614 125.259 26.8636C124.737 27.4602 124.06 27.9261 123.231 28.2614C122.407 28.5909 121.455 28.7557 120.376 28.7557ZM133.577 28.7131C132.583 28.7131 131.683 28.4574 130.876 27.946C130.075 27.429 129.438 26.6705 128.967 25.6705C128.501 24.6648 128.268 23.4318 128.268 21.9716C128.268 20.4716 128.509 19.2244 128.992 18.2301C129.475 17.2301 130.117 16.483 130.918 15.9886C131.725 15.4886 132.609 15.2386 133.569 15.2386C134.302 15.2386 134.913 15.3636 135.401 15.6136C135.896 15.858 136.293 16.1648 136.594 16.5341C136.901 16.8977 137.134 17.2557 137.293 17.608H137.404V11.0455H141.026V28.5H137.447V26.4034H137.293C137.123 26.767 136.881 27.1278 136.569 27.4858C136.262 27.8381 135.862 28.1307 135.367 28.3636C134.879 28.5966 134.282 28.7131 133.577 28.7131ZM134.728 25.8239C135.313 25.8239 135.808 25.6648 136.211 25.3466C136.62 25.0227 136.933 24.571 137.148 23.9915C137.37 23.4119 137.481 22.733 137.481 21.9545C137.481 21.1761 137.373 20.5 137.157 19.9261C136.941 19.3523 136.629 18.9091 136.219 18.5966C135.81 18.2841 135.313 18.1278 134.728 18.1278C134.131 18.1278 133.629 18.2898 133.219 18.6136C132.81 18.9375 132.501 19.3864 132.29 19.9602C132.08 20.5341 131.975 21.1989 131.975 21.9545C131.975 22.7159 132.08 23.3892 132.29 23.9744C132.506 24.554 132.816 25.0085 133.219 25.3381C133.629 25.6619 134.131 25.8239 134.728 25.8239ZM144.011 28.5V15.4091H147.642V28.5H144.011ZM145.835 13.7216C145.295 13.7216 144.832 13.5426 144.446 13.1847C144.065 12.821 143.875 12.3864 143.875 11.8807C143.875 11.3807 144.065 10.9517 144.446 10.5938C144.832 10.2301 145.295 10.0483 145.835 10.0483C146.375 10.0483 146.835 10.2301 147.216 10.5938C147.602 10.9517 147.795 11.3807 147.795 11.8807C147.795 12.3864 147.602 12.821 147.216 13.1847C146.835 13.5426 146.375 13.7216 145.835 13.7216ZM154.283 28.7472C153.448 28.7472 152.704 28.6023 152.05 28.3125C151.397 28.017 150.88 27.5824 150.499 27.0085C150.124 26.429 149.937 25.7074 149.937 24.8438C149.937 24.1165 150.07 23.5057 150.337 23.0114C150.604 22.517 150.968 22.1193 151.428 21.8182C151.888 21.517 152.411 21.2898 152.996 21.1364C153.587 20.983 154.207 20.875 154.854 20.8125C155.616 20.733 156.229 20.6591 156.695 20.5909C157.161 20.517 157.499 20.4091 157.71 20.267C157.92 20.125 158.025 19.9148 158.025 19.6364V19.5852C158.025 19.0455 157.854 18.6278 157.513 18.3324C157.178 18.0369 156.701 17.8892 156.082 17.8892C155.428 17.8892 154.908 18.0341 154.522 18.3239C154.136 18.608 153.88 18.9659 153.755 19.3977L150.397 19.125C150.567 18.3295 150.903 17.642 151.403 17.0625C151.903 16.4773 152.548 16.0284 153.337 15.7159C154.133 15.3977 155.053 15.2386 156.099 15.2386C156.826 15.2386 157.522 15.3239 158.187 15.4943C158.857 15.6648 159.451 15.929 159.968 16.2869C160.491 16.6449 160.903 17.1051 161.204 17.6676C161.505 18.2244 161.656 18.892 161.656 19.6705V28.5H158.212V26.6847H158.11C157.9 27.0938 157.619 27.4545 157.266 27.767C156.914 28.0739 156.491 28.3153 155.996 28.4915C155.502 28.6619 154.931 28.7472 154.283 28.7472ZM155.323 26.2415C155.857 26.2415 156.329 26.1364 156.738 25.9261C157.147 25.7102 157.468 25.4205 157.701 25.0568C157.934 24.6932 158.05 24.2812 158.05 23.821V22.4318C157.937 22.5057 157.781 22.5739 157.582 22.6364C157.388 22.6932 157.17 22.7472 156.925 22.7983C156.681 22.8437 156.437 22.8864 156.192 22.9261C155.948 22.9602 155.727 22.9915 155.528 23.0199C155.102 23.0824 154.729 23.1818 154.411 23.3182C154.093 23.4545 153.846 23.6392 153.67 23.8722C153.494 24.0994 153.406 24.3835 153.406 24.7244C153.406 25.2188 153.585 25.5966 153.942 25.858C154.306 26.1136 154.766 26.2415 155.323 26.2415ZM168.103 20.9318V28.5H164.472V15.4091H167.933V17.7188H168.086C168.376 16.9574 168.862 16.3551 169.543 15.9119C170.225 15.4631 171.052 15.2386 172.023 15.2386C172.933 15.2386 173.725 15.4375 174.401 15.8352C175.077 16.233 175.603 16.8011 175.978 17.5398C176.353 18.2727 176.54 19.1477 176.54 20.1648V28.5H172.91V20.8125C172.915 20.0114 172.711 19.3864 172.296 18.9375C171.881 18.483 171.31 18.2557 170.583 18.2557C170.094 18.2557 169.663 18.3608 169.288 18.571C168.918 18.7812 168.629 19.0881 168.418 19.4915C168.214 19.8892 168.109 20.3693 168.103 20.9318Z" fill="white"/>
</svg>
